<?xml version="1.0" encoding="UTF-8" standalone="no"?>
<!-- Created with Inkscape (http://www.inkscape.org/) -->

<svg
   xmlns:dc="http://purl.org/dc/elements/1.1/"
   xmlns:cc="http://creativecommons.org/ns#"
   xmlns:rdf="http://www.w3.org/1999/02/22-rdf-syntax-ns#"
   xmlns:svg="http://www.w3.org/2000/svg"
   xmlns="http://www.w3.org/2000/svg"
   xmlns:sodipodi="http://sodipodi.sourceforge.net/DTD/sodipodi-0.dtd"
   xmlns:inkscape="http://www.inkscape.org/namespaces/inkscape"
   width="210mm"
   height="297mm"
   viewBox="0 0 744.09448819 1052.3622047"
   id="svg4409"
   version="1.1"
   inkscape:version="0.91 r13725"
   sodipodi:docname="SA outline work.svg">
  <defs
     id="defs4411">
    <clipPath
       clipPathUnits="userSpaceOnUse"
       id="clipPath3463">
      <path
         d="M 0,792 612,792 612,0 0,0 0,792 Z"
         id="path3465"
         inkscape:connector-curvature="0" />
    </clipPath>
    <clipPath
       clipPathUnits="userSpaceOnUse"
       id="clipPath3483">
      <path
         d="M 0,792 612,792 612,0 0,0 0,792 Z"
         id="path3485"
         inkscape:connector-curvature="0" />
    </clipPath>
    <clipPath
       clipPathUnits="userSpaceOnUse"
       id="clipPath3759">
      <path
         d="M 0,792 612,792 612,0 0,0 0,792 Z"
         id="path3761"
         inkscape:connector-curvature="0" />
    </clipPath>
    <clipPath
       clipPathUnits="userSpaceOnUse"
       id="clipPath3879">
      <path
         d="M 0,792 612,792 612,0 0,0 0,792 Z"
         id="path3881"
         inkscape:connector-curvature="0" />
    </clipPath>
    <clipPath
       clipPathUnits="userSpaceOnUse"
       id="clipPath4025">
      <path
         d="M 0,792 612,792 612,0 0,0 0,792 Z"
         id="path4027"
         inkscape:connector-curvature="0" />
    </clipPath>
  </defs>
  <sodipodi:namedview
     id="base"
     pagecolor="#ffffff"
     bordercolor="#666666"
     borderopacity="1.0"
     inkscape:pageopacity="0.0"
     inkscape:pageshadow="2"
     inkscape:zoom="2.0030864"
     inkscape:cx="401.6302"
     inkscape:cy="781.72265"
     inkscape:document-units="mm"
     inkscape:current-layer="layer1"
     showgrid="false"
     inkscape:window-width="1440"
     inkscape:window-height="851"
     inkscape:window-x="0"
     inkscape:window-y="1"
     inkscape:window-maximized="1" />
  <metadata
     id="metadata4414">
    <rdf:RDF>
      <cc:Work
         rdf:about="">
        <dc:format>image/svg+xml</dc:format>
        <dc:type
           rdf:resource="http://purl.org/dc/dcmitype/StillImage" />
        <dc:title></dc:title>
      </cc:Work>
    </rdf:RDF>
  </metadata>
  <g
     inkscape:label="Layer 1"
     inkscape:groupmode="layer"
     id="layer1">
    <g
       transform="matrix(1.2224391,0,0,-1.2224391,67.775318,968.62392)"
       id="g3459">
      <g
         id="g3461"
         clip-path="url(#clipPath3463)">
        <g
           id="g3467"
           transform="translate(398.041,561.5)">
          <path
             d="m 0,0 c -0.292,0.693 -0.915,1.186 -1.658,1.314 m -32.381,0 C -34.777,1.186 -35.401,0.693 -35.696,0 M 7.343,-31.311 C 6.729,-20.523 4.248,-9.93 0,0 m -35.696,0 c -4.246,-9.93 -6.727,-20.523 -7.338,-31.311 M -1.658,1.314 c -5.343,0.951 -10.759,1.423 -16.189,1.423 -5.428,0 -10.843,-0.472 -16.192,-1.423 m -70.335,0.229 c -0.164,0.386 -0.543,0.637 -0.958,0.637 -0.057,0 -0.118,-0.008 -0.171,-0.015 m -33.139,0 c -0.057,0.007 -0.114,0.015 -0.171,0.015 -0.419,0 -0.794,-0.251 -0.958,-0.637 m 42.884,-32.854 c -0.476,11.316 -3.015,22.453 -7.487,32.854 m -35.397,0 c -4.477,-10.401 -7.015,-21.538 -7.492,-32.854 m 8.621,33.476 c 5.474,-0.914 11.015,-1.371 16.568,-1.371 5.55,0 11.093,0.457 16.571,1.371 m 60.731,-33.633 -50.848,0 m 8.992,33.204 c 1.46,-0.064 2.923,-0.099 4.389,-0.099 9.612,0 19.174,1.378 28.4,4.087 m 9.067,-37.035 C -45.728,-18.889 -48.35,-6.65 -52.566,5.08 M -87.654,1.051 c -3.851,-10.424 -6.367,-21.304 -7.495,-32.362 m 8.521,33.047 -0.049,0 c -0.434,0 -0.824,-0.271 -0.977,-0.685 m 35.088,4.029 c -0.149,0.406 -0.54,0.686 -0.979,0.686 -0.101,0 -0.2,-0.015 -0.294,-0.042 m -136.468,0 c -0.098,0.027 -0.198,0.042 -0.297,0.042 -0.439,0 -0.833,-0.28 -0.978,-0.686 m 35.086,-4.029 c -0.149,0.414 -0.542,0.685 -0.978,0.685 l -0.043,0 m 8.516,-33.047 c -1.127,11.058 -3.644,21.938 -7.495,32.362 m -35.086,4.029 c -4.219,-11.73 -6.84,-23.969 -7.796,-36.391 m 9.071,37.035 c 9.222,-2.709 18.785,-4.087 28.396,-4.087 1.466,0 2.93,0.035 4.394,0.099 m -84.374,11.38 c -0.124,0.051 -0.256,0.079 -0.393,0.079 -0.438,0 -0.829,-0.279 -0.982,-0.685 m 34.488,-7.373 c -0.159,0.357 -0.501,0.592 -0.889,0.614 m 8.554,-37.062 0,0.064 c 0,12.53 -2.611,24.918 -7.665,36.384 m -34.488,7.373 c -5.083,-14.074 -7.857,-28.869 -8.225,-43.821 m 9.6,44.427 c 10.265,-4.207 21.152,-6.701 32.224,-7.358 m 166.407,-37.226 50.915,0 m -155.219,0 50.914,0 m -102.864,0 50.914,0 m -103.182,0 50.511,0"
             style="fill:none;stroke:#231f20;stroke-width:1;stroke-linecap:butt;stroke-linejoin:miter;stroke-miterlimit:10;stroke-dasharray:none;stroke-opacity:1"
             id="path3469"
             inkscape:connector-curvature="0" />
        </g>
      </g>
    </g>
    <text
       y="336.67172"
       x="255.9904"
       style="font-variant:normal;font-weight:normal;font-stretch:normal;font-size:11.0018816px;font-family:Arial;-inkscape-font-specification:ArialMT;writing-mode:lr-tb;fill:#231f20;fill-opacity:1;fill-rule:nonzero;stroke:none"
       id="text3471">
      <tspan
         x="255.9904 259.65405 263.31775 269.43475 278.61038 284.72751 290.84457 296.96167 323.6304 327.29404 330.95767 340.13327 346.2504 352.36752 358.48459 390.04926 393.7128 402.88846 409.00552 415.12256 421.23969"
         y="336.67172"
         sodipodi:role="line"
         id="tspan3473">(-13deg)(-7deg)(0deg)</tspan>
      <tspan
         x="453.2114 456.87503 466.05069 472.16776 478.28482 484.40195"
         y="337.07877"
         sodipodi:role="line"
         id="tspan3475">(7deg)</tspan>
      <tspan
         x="518.40894 522.07257 531.24817 537.36523 543.48236 549.59949"
         y="337.4859"
         sodipodi:role="line"
         id="tspan3477">(0deg)</tspan>
    </text>
    <g
       transform="matrix(1.2224391,0,0,-1.2224391,67.775318,968.62392)"
       id="g3479">
      <g
         id="g3481"
         clip-path="url(#clipPath3483)">
        <g
           id="g3487"
           transform="translate(109.5918,534.8774)">
          <path
             d="m 0,0 0,-5 m -0.375,33 0,-5 m 34,-28.25 -34,0 m -0.25,33.5 167.75,0"
             style="fill:none;stroke:#231f20;stroke-width:0.5;stroke-linecap:butt;stroke-linejoin:miter;stroke-miterlimit:4;stroke-dasharray:none;stroke-opacity:1"
             id="path3489"
             inkscape:connector-curvature="0" />
        </g>
      </g>
    </g>
    <text
       y="305.49844"
       x="189.97989"
       style="font-variant:normal;font-weight:normal;font-stretch:normal;font-size:11.0018816px;font-family:Arial;-inkscape-font-specification:ArialMT;writing-mode:lr-tb;fill:#231f20;fill-opacity:1;fill-rule:nonzero;stroke:none"
       id="text3491">
      <tspan
         x="189.97989 196.09697 199.15552 205.2726 211.38968"
         y="305.49844"
         sodipodi:role="line"
         id="tspan3493">0.462</tspan>
    </text>
    <g
       transform="matrix(1.2224391,0,0,-1.2224391,-456.67762,965.47081)"
       id="g3755">
      <g
         id="g3757"
         clip-path="url(#clipPath3759)">
        <g
           id="g3763"
           transform="translate(300.1104,58.0518)" />
        <g
           id="g3767"
           transform="translate(535.5205,301.5596)">
          <path
             d="M 0,0 C 0,1.886 -1.402,3.414 -3.13,3.414 M 6.607,2.202 c 0,1.825 -1.539,3.316 -3.44,3.316 M 3.291,5.449 -3.312,3.287 m 9.904,-1.081 0,0 -6.78,-2.581 m -26.729,5.83 c -1.763,0 -3.19,-1.433 -3.19,-3.19 m 9.742,0.899 c -1.763,0 -3.191,-1.429 -3.191,-3.19 m -6.568,2.232 6.478,-2.158 m -3.24,5.401 6.478,-2.162 m -9.716,-1.081 0,0 m 33.478,3.243 -30.24,0 m 23.762,-2.162 -17.284,0 m -6.651,-38.814 c 1.762,0 3.191,1.423 3.191,3.19 m -9.613,-1.158 c 1.871,0 3.391,1.509 3.391,3.377 m -0.034,-0.072 6.478,-2.163 m -9.721,-1.081 6.481,-2.158 m -3.238,37.798 0,-32.396 m 6.478,30.238 0,-32.401 m 21.208,-27.503 c 1.547,0.246 2.681,1.582 2.681,3.146 m 2.945,-13.478 c 1.865,0 3.375,1.627 3.375,3.625 M -2.5,-60 3.354,-70.154 m -3.24,12.964 6.478,-9.721 m 0,0 0,0 m 0,0 0,69.117 m -6.478,-2.158 0,-57.238 m -49.564,21.538 c -1.902,0 -3.441,-1.461 -3.441,-3.253 m -3.173,5.472 c -1.763,0 -3.191,-1.432 -3.191,-3.19 m -0.031,1.031 6.481,-3.238 m -3.243,5.396 6.483,-2.158 m -3.138,-21.368 c 0,-1.325 1.463,-2.457 3.453,-2.665 m -9.942,-7.274 c 0,-1.758 1.427,-3.191 3.19,-3.191 m -3.284,3.179 6.481,9.721 m -3.243,-12.964 6.798,10.529 m -10.036,-7.286 0,0 m 0,0 0,31.319 m 6.481,-21.598 0,18.36 m -3.243,-31.324 59.402,0 m -59.402,36.72 22.681,0 m -16.198,-2.158 22.679,0 m -22.57,-24.077 c 7.897,-1.266 15.887,-1.907 23.885,-1.907 7.998,0 15.982,0.641 23.883,1.907"
             style="fill:none;stroke:#110f0d;stroke-width:1;stroke-linecap:butt;stroke-linejoin:miter;stroke-miterlimit:10;stroke-dasharray:none;stroke-opacity:1"
             id="path3769"
             inkscape:connector-curvature="0" />
        </g>
      </g>
    </g>
    <text
       y="555.59442"
       x="118.2353"
       style="font-variant:normal;font-weight:normal;font-stretch:normal;font-size:11.0018816px;font-family:Arial;-inkscape-font-specification:ArialMT;writing-mode:lr-tb;fill:#231f20;fill-opacity:1;fill-rule:nonzero;stroke:none"
       id="text3771">
      <tspan
         x="118.2353 125.57359 132.91191 142.07651 149.41484 155.53195 165.92876 169.83447 175.33543 182.29971 189.638 197.58139 204.91972 212.258"
         y="555.59442"
         sodipodi:role="line"
         id="tspan3773">SAMPLE&quot;J&quot;SHAPE</tspan>
      <tspan
         x="128.01604 137.19164 147.58853 156.76414 167.161 173.27808 176.33662 182.4537 191.62933 202.02617"
         y="570.8761"
         sodipodi:role="line"
         id="tspan3775">1X2X1.75X1</tspan>
    </text>
    <g
       transform="matrix(1.2224391,0,0,-1.2224391,-456.67762,965.47081)"
       id="g3875">
      <g
         id="g3877"
         clip-path="url(#clipPath3879)">
        <g
           id="g3887"
           transform="translate(541.4551,405.8472)">
          <path
             d="m 0,0 c 0,-0.999 -0.801,-1.809 -1.789,-1.809 l -48.368,0 c -0.989,0 -1.79,0.81 -1.79,1.809 l 0,48.832 c 0,0.998 0.801,1.809 1.79,1.809 l 48.368,0 C -0.801,50.641 0,49.83 0,48.832 L 0,0 Z"
             style="fill:#ffffff;fill-opacity:1;fill-rule:nonzero;stroke:none"
             id="path3889"
             inkscape:connector-curvature="0" />
        </g>
        <g
           id="g3891"
           transform="translate(541.4551,405.8472)">
          <path
             d="m 0,0 c 0,-0.999 -0.801,-1.809 -1.789,-1.809 l -48.368,0 c -0.989,0 -1.79,0.81 -1.79,1.809 l 0,48.832 c 0,0.998 0.801,1.809 1.79,1.809 l 48.368,0 C -0.801,50.641 0,49.83 0,48.832 L 0,0 Z"
             style="fill:none;stroke:#231f20;stroke-width:1;stroke-linecap:butt;stroke-linejoin:miter;stroke-miterlimit:4;stroke-dasharray:none;stroke-opacity:1"
             id="path3893"
             inkscape:connector-curvature="0" />
        </g>
        <g
           id="g3895"
           transform="translate(533.5068,417.8706)">
          <path
             d="m 0,0 c 0,-2.982 -2.428,-5.398 -5.423,-5.398 l -25.305,0 c -2.995,0 -5.422,2.416 -5.422,5.398 l 0,25.189 c 0,2.981 2.427,5.397 5.422,5.397 l 25.305,0 C -2.428,30.586 0,28.17 0,25.189 L 0,0 Z"
             style="fill:#ffffff;fill-opacity:1;fill-rule:nonzero;stroke:none"
             id="path3897"
             inkscape:connector-curvature="0" />
        </g>
        <g
           id="g3899"
           transform="translate(533.5068,417.8706)">
          <path
             d="m 0,0 c 0,-2.982 -2.428,-5.398 -5.423,-5.398 l -25.305,0 c -2.995,0 -5.422,2.416 -5.422,5.398 l 0,25.189 c 0,2.981 2.427,5.397 5.422,5.397 l 25.305,0 C -2.428,30.586 0,28.17 0,25.189 L 0,0 Z"
             style="fill:none;stroke:#231f20;stroke-width:1;stroke-linecap:butt;stroke-linejoin:miter;stroke-miterlimit:4;stroke-dasharray:none;stroke-opacity:1"
             id="path3901"
             inkscape:connector-curvature="0" />
        </g>
        <g
           id="g3903"
           transform="translate(497.3838,447.5981)">
          <path
             d="M 0,0 0,20.742"
             style="fill:#ffffff;fill-opacity:1;fill-rule:nonzero;stroke:#231f20;stroke-width:1;stroke-linecap:butt;stroke-linejoin:miter;stroke-miterlimit:4;stroke-dasharray:none;stroke-opacity:1"
             id="path3905"
             inkscape:connector-curvature="0" />
        </g>
        <g
           id="g3907"
           transform="translate(533.2393,447.1343)">
          <path
             d="M 0,0 0,20.742"
             style="fill:#ffffff;fill-opacity:1;fill-rule:nonzero;stroke:#231f20;stroke-width:1;stroke-linecap:butt;stroke-linejoin:miter;stroke-miterlimit:4;stroke-dasharray:none;stroke-opacity:1"
             id="path3909"
             inkscape:connector-curvature="0" />
        </g>
        <g
           id="g3911"
           transform="translate(489.4678,383.4746)">
          <path
             d="M 0,0 0,19.37"
             style="fill:#ffffff;fill-opacity:1;fill-rule:nonzero;stroke:#231f20;stroke-width:1;stroke-linecap:butt;stroke-linejoin:miter;stroke-miterlimit:4;stroke-dasharray:none;stroke-opacity:1"
             id="path3913"
             inkscape:connector-curvature="0" />
        </g>
        <g
           id="g3915"
           transform="translate(501.9551,385.8496)">
          <path
             d="M 0,0 -12.193,0"
             style="fill:#ffffff;fill-opacity:1;fill-rule:nonzero;stroke:#231f20;stroke-width:0.75;stroke-linecap:butt;stroke-linejoin:miter;stroke-miterlimit:4;stroke-dasharray:none;stroke-opacity:1"
             id="path3917"
             inkscape:connector-curvature="0" />
        </g>
        <g
           id="g3919"
           transform="translate(541.501,383.1504)">
          <path
             d="M 0,0 0,20.742"
             style="fill:#ffffff;fill-opacity:1;fill-rule:nonzero;stroke:#231f20;stroke-width:1;stroke-linecap:butt;stroke-linejoin:miter;stroke-miterlimit:4;stroke-dasharray:none;stroke-opacity:1"
             id="path3921"
             inkscape:connector-curvature="0" />
        </g>
        <g
           id="g3923"
           transform="translate(541.5352,386.0781)">
          <path
             d="M 0,0 -12.37,0"
             style="fill:#ffffff;fill-opacity:1;fill-rule:nonzero;stroke:#231f20;stroke-width:0.75;stroke-linecap:butt;stroke-linejoin:miter;stroke-miterlimit:4;stroke-dasharray:none;stroke-opacity:1"
             id="path3925"
             inkscape:connector-curvature="0" />
        </g>
        <g
           id="g3927"
           transform="translate(562.6963,448.5483)">
          <path
             d="M 0,0 -28.151,0"
             style="fill:#ffffff;fill-opacity:1;fill-rule:nonzero;stroke:#231f20;stroke-width:1;stroke-linecap:butt;stroke-linejoin:miter;stroke-miterlimit:4;stroke-dasharray:none;stroke-opacity:1"
             id="path3929"
             inkscape:connector-curvature="0" />
        </g>
        <g
           id="g3931"
           transform="translate(562.3662,412.5444)">
          <path
             d="M 0,0 -28.152,0"
             style="fill:#ffffff;fill-opacity:1;fill-rule:nonzero;stroke:#231f20;stroke-width:1;stroke-linecap:butt;stroke-linejoin:miter;stroke-miterlimit:4;stroke-dasharray:none;stroke-opacity:1"
             id="path3933"
             inkscape:connector-curvature="0" />
        </g>
        <g
           id="g3935"
           transform="translate(463.8721,445.3022)">
          <path
             d="M 0,0 0,10.608"
             style="fill:#ffffff;fill-opacity:1;fill-rule:nonzero;stroke:#231f20;stroke-width:0.75;stroke-linecap:butt;stroke-linejoin:miter;stroke-miterlimit:4;stroke-dasharray:none;stroke-opacity:1"
             id="path3937"
             inkscape:connector-curvature="0" />
        </g>
        <g
           id="g3939"
           transform="translate(488.2793,456.3862)">
          <path
             d="M 0,0 -28.152,0"
             style="fill:#ffffff;fill-opacity:1;fill-rule:nonzero;stroke:#231f20;stroke-width:1;stroke-linecap:butt;stroke-linejoin:miter;stroke-miterlimit:4;stroke-dasharray:none;stroke-opacity:1"
             id="path3941"
             inkscape:connector-curvature="0" />
        </g>
        <g
           id="g3943"
           transform="translate(464.8213,405.23)">
          <path
             d="M 0,0 0,11.494"
             style="fill:#ffffff;fill-opacity:1;fill-rule:nonzero;stroke:#231f20;stroke-width:0.75;stroke-linecap:butt;stroke-linejoin:miter;stroke-miterlimit:4;stroke-dasharray:none;stroke-opacity:1"
             id="path3945"
             inkscape:connector-curvature="0" />
        </g>
        <g
           id="g3947"
           transform="translate(487.9609,403.9839)">
          <path
             d="M 0,0 -28.152,0"
             style="fill:#ffffff;fill-opacity:1;fill-rule:nonzero;stroke:#231f20;stroke-width:1;stroke-linecap:butt;stroke-linejoin:miter;stroke-miterlimit:4;stroke-dasharray:none;stroke-opacity:1"
             id="path3949"
             inkscape:connector-curvature="0" />
        </g>
        <g
           id="g3951"
           transform="translate(463.5332,456.1069)">
          <path
             d="M 0,0 -1.029,-1.82"
             style="fill:#ffffff;fill-opacity:1;fill-rule:nonzero;stroke:#231f20;stroke-width:0.75;stroke-linecap:butt;stroke-linejoin:miter;stroke-miterlimit:4;stroke-dasharray:none;stroke-opacity:1"
             id="path3953"
             inkscape:connector-curvature="0" />
        </g>
        <g
           id="g3955"
           transform="translate(464.2451,455.8696)">
          <path
             d="M 0,0 0.95,-1.425"
             style="fill:#ffffff;fill-opacity:1;fill-rule:nonzero;stroke:#231f20;stroke-width:0.75;stroke-linecap:butt;stroke-linejoin:miter;stroke-miterlimit:4;stroke-dasharray:none;stroke-opacity:1"
             id="path3957"
             inkscape:connector-curvature="0" />
        </g>
        <g
           id="g3959"
           transform="translate(466.4619,406.6206)">
          <path
             d="M 0,0 -1.662,-1.943"
             style="fill:#ffffff;fill-opacity:1;fill-rule:nonzero;stroke:#231f20;stroke-width:0.75;stroke-linecap:butt;stroke-linejoin:miter;stroke-miterlimit:4;stroke-dasharray:none;stroke-opacity:1"
             id="path3961"
             inkscape:connector-curvature="0" />
        </g>
        <g
           id="g3963"
           transform="translate(463.2168,406.7905)">
          <path
             d="M 0,0 1.504,-2.281"
             style="fill:#ffffff;fill-opacity:1;fill-rule:nonzero;stroke:#231f20;stroke-width:0.75;stroke-linecap:butt;stroke-linejoin:miter;stroke-miterlimit:4;stroke-dasharray:none;stroke-opacity:1"
             id="path3965"
             inkscape:connector-curvature="0" />
        </g>
        <g
           id="g3967"
           transform="translate(539.7207,387.8652)">
          <path
             d="M 0,0 1.789,-1.582"
             style="fill:#ffffff;fill-opacity:1;fill-rule:nonzero;stroke:#231f20;stroke-width:0.75;stroke-linecap:butt;stroke-linejoin:miter;stroke-miterlimit:4;stroke-dasharray:none;stroke-opacity:1"
             id="path3969"
             inkscape:connector-curvature="0" />
        </g>
        <g
           id="g3971"
           transform="translate(539.7207,384.3027)">
          <path
             d="M 0,0 1.814,1.775"
             style="fill:#ffffff;fill-opacity:1;fill-rule:nonzero;stroke:#231f20;stroke-width:0.75;stroke-linecap:butt;stroke-linejoin:miter;stroke-miterlimit:4;stroke-dasharray:none;stroke-opacity:1"
             id="path3973"
             inkscape:connector-curvature="0" />
        </g>
        <g
           id="g3975"
           transform="translate(491.2412,387.7871)">
          <path
             d="M 0,0 -1.425,-1.742"
             style="fill:#ffffff;fill-opacity:1;fill-rule:nonzero;stroke:#231f20;stroke-width:0.75;stroke-linecap:butt;stroke-linejoin:miter;stroke-miterlimit:4;stroke-dasharray:none;stroke-opacity:1"
             id="path3977"
             inkscape:connector-curvature="0" />
        </g>
        <g
           id="g3979"
           transform="translate(491.5576,383.6699)">
          <path
             d="M 0,0 -1.979,2.059"
             style="fill:#ffffff;fill-opacity:1;fill-rule:nonzero;stroke:#231f20;stroke-width:0.75;stroke-linecap:butt;stroke-linejoin:miter;stroke-miterlimit:4;stroke-dasharray:none;stroke-opacity:1"
             id="path3981"
             inkscape:connector-curvature="0" />
        </g>
        <g
           id="g3983"
           transform="translate(506.8564,465.2524)">
          <path
             d="M 0,0 -9.193,0"
             style="fill:#ffffff;fill-opacity:1;fill-rule:nonzero;stroke:#231f20;stroke-width:0.75;stroke-linecap:butt;stroke-linejoin:miter;stroke-miterlimit:4;stroke-dasharray:none;stroke-opacity:1"
             id="path3985"
             inkscape:connector-curvature="0" />
        </g>
        <g
           id="g3987"
           transform="translate(499.1436,467.189)">
          <path
             d="M 0,0 -1.426,-1.741"
             style="fill:#ffffff;fill-opacity:1;fill-rule:nonzero;stroke:#231f20;stroke-width:0.75;stroke-linecap:butt;stroke-linejoin:miter;stroke-miterlimit:4;stroke-dasharray:none;stroke-opacity:1"
             id="path3989"
             inkscape:connector-curvature="0" />
        </g>
        <g
           id="g3991"
           transform="translate(499.46,463.0728)">
          <path
             d="M 0,0 -1.979,2.06"
             style="fill:#ffffff;fill-opacity:1;fill-rule:nonzero;stroke:#231f20;stroke-width:0.75;stroke-linecap:butt;stroke-linejoin:miter;stroke-miterlimit:4;stroke-dasharray:none;stroke-opacity:1"
             id="path3993"
             inkscape:connector-curvature="0" />
        </g>
        <g
           id="g3995"
           transform="translate(532.9541,465.1323)">
          <path
             d="M 0,0 -9.879,0"
             style="fill:#ffffff;fill-opacity:1;fill-rule:nonzero;stroke:#231f20;stroke-width:0.75;stroke-linecap:butt;stroke-linejoin:miter;stroke-miterlimit:4;stroke-dasharray:none;stroke-opacity:1"
             id="path3997"
             inkscape:connector-curvature="0" />
        </g>
        <g
           id="g3999"
           transform="translate(531.1475,466.9194)">
          <path
             d="M 0,0 1.781,-1.582"
             style="fill:#ffffff;fill-opacity:1;fill-rule:nonzero;stroke:#231f20;stroke-width:0.75;stroke-linecap:butt;stroke-linejoin:miter;stroke-miterlimit:4;stroke-dasharray:none;stroke-opacity:1"
             id="path4001"
             inkscape:connector-curvature="0" />
        </g>
        <g
           id="g4003"
           transform="translate(531.1475,463.3569)">
          <path
             d="M 0,0 1.807,1.775"
             style="fill:#ffffff;fill-opacity:1;fill-rule:nonzero;stroke:#231f20;stroke-width:0.75;stroke-linecap:butt;stroke-linejoin:miter;stroke-miterlimit:4;stroke-dasharray:none;stroke-opacity:1"
             id="path4005"
             inkscape:connector-curvature="0" />
        </g>
      </g>
    </g>
    <text
       y="381.22897"
       x="139.48114"
       style="font-variant:normal;font-weight:normal;font-stretch:normal;font-size:12.22431374px;font-family:Myriad;-inkscape-font-specification:Myriad-Roman;writing-mode:lr-tb;fill:#231f20;fill-opacity:1;fill-rule:nonzero;stroke:none"
       id="text4007">
      <tspan
         x="139.48114 145.50783 150.66649 158.14783 166.1915 174.3329 181.81427 188.39096 196.53242 199.12401 205.3951 211.05502"
         y="381.22897"
         sodipodi:role="line"
         id="tspan4009">STANDARD 1x1</tspan>
    </text>
    <text
       y="399.76971"
       x="163.5229"
       style="font-variant:normal;font-weight:normal;font-stretch:normal;font-size:9.77944946px;font-family:Myriad;-inkscape-font-specification:Myriad-Roman;writing-mode:lr-tb;fill:#231f20;fill-opacity:1;fill-rule:nonzero;stroke:none"
       id="text4011">
      <tspan
         x="163.5229 165.54721 170.56412 175.58099"
         y="399.76971"
         sodipodi:role="line"
         id="tspan4013">.500</tspan>
      <tspan
         x="102.81165 104.83601 109.85288 114.86979"
         y="441.74335"
         sodipodi:role="line"
         id="tspan4015">.725</tspan>
      <tspan
         x="166.37852 168.40289 173.41977 178.43666"
         y="496.75314"
         sodipodi:role="line"
         id="tspan4017">.725</tspan>
      <tspan
         x="217.72096 219.7453 224.76224 229.77911"
         y="441.13705"
         sodipodi:role="line"
         id="tspan4019">.500</tspan>
    </text>
    <g
       transform="matrix(1.2224391,0,0,-1.2224391,-456.67762,965.47081)"
       id="g4021">
      <g
         id="g4023"
         clip-path="url(#clipPath4025)">
        <g
           id="g4029"
           transform="translate(483.6797,475.4312)">
          <path
             d="M 0,0 70,0"
             style="fill:none;stroke:#231f20;stroke-width:1;stroke-linecap:butt;stroke-linejoin:miter;stroke-miterlimit:4;stroke-dasharray:none;stroke-opacity:1"
             id="path4031"
             inkscape:connector-curvature="0" />
        </g>
      </g>
    </g>
    <text
       xml:space="preserve"
       style="font-style:normal;font-variant:normal;font-weight:bold;font-stretch:normal;font-size:14.66917515px;line-height:125%;font-family:sans-serif;-inkscape-font-specification:'sans-serif, Bold';text-align:start;letter-spacing:0px;word-spacing:0px;writing-mode:lr-tb;text-anchor:start;fill:#000000;fill-opacity:1;stroke:none;stroke-width:1px;stroke-linecap:butt;stroke-linejoin:miter;stroke-opacity:1"
       x="224.29263"
       y="497.23831"
       id="text4858"
       sodipodi:linespacing="125%"><tspan
         sodipodi:role="line"
         id="tspan4860"
         x="224.29263"
         y="497.23831" /></text>
    <text
       xml:space="preserve"
       style="font-style:normal;font-variant:normal;font-weight:normal;font-stretch:normal;font-size:12.22431374px;line-height:125%;font-family:sans-serif;-inkscape-font-specification:sans-serif;text-align:start;letter-spacing:0px;word-spacing:0px;writing-mode:lr-tb;text-anchor:start;fill:#000000;fill-opacity:1;stroke:none;stroke-width:1px;stroke-linecap:butt;stroke-linejoin:miter;stroke-opacity:1"
       x="217.87738"
       y="499.37677"
       id="text5046"
       sodipodi:linespacing="125%"><tspan
         sodipodi:role="line"
         id="tspan5048"
         x="217.87738"
         y="499.37677">18.415 mm</tspan></text>
    <text
       sodipodi:linespacing="125%"
       id="text5050"
       y="441.63943"
       x="251.0229"
       style="font-style:normal;font-variant:normal;font-weight:normal;font-stretch:normal;font-size:12.22431374px;line-height:125%;font-family:sans-serif;-inkscape-font-specification:sans-serif;text-align:start;letter-spacing:0px;word-spacing:0px;writing-mode:lr-tb;text-anchor:start;fill:#000000;fill-opacity:1;stroke:none;stroke-width:1px;stroke-linecap:butt;stroke-linejoin:miter;stroke-opacity:1"
       xml:space="preserve"><tspan
         y="441.63943"
         x="251.0229"
         id="tspan5052"
         sodipodi:role="line">12.7 mm</tspan></text>
    <text
       xml:space="preserve"
       style="font-style:normal;font-variant:normal;font-weight:normal;font-stretch:normal;font-size:12.22431374px;line-height:125%;font-family:sans-serif;-inkscape-font-specification:sans-serif;text-align:start;letter-spacing:0px;word-spacing:0px;writing-mode:lr-tb;text-anchor:start;fill:#000000;fill-opacity:1;stroke:none;stroke-width:1px;stroke-linecap:butt;stroke-linejoin:miter;stroke-opacity:1"
       x="109.80111"
       y="306.4115"
       id="text5054"
       sodipodi:linespacing="125%"><tspan
         sodipodi:role="line"
         id="tspan5056"
         x="109.80111"
         y="306.4115">11.7348mm</tspan></text>
    <ellipse
       style="opacity:1;fill:none;fill-opacity:1;stroke:#999999;stroke-width:0.53164309;stroke-linejoin:round;stroke-miterlimit:4;stroke-dasharray:none;stroke-opacity:1;stroke-dashoffset:0"
       id="ellipse5864"
       cx="404.89355"
       cy="163.35812"
       rx="117.91048"
       ry="117.91032" />
    <rect
       style="opacity:1;fill:none;fill-opacity:1;stroke:#999999;stroke-width:0.6625126;stroke-linejoin:round;stroke-miterlimit:4;stroke-dasharray:none;stroke-opacity:1"
       id="rect5885"
       width="10.123085"
       height="40.907639"
       x="223.7899"
       y="280.20984" />
    <ellipse
       ry="117.91032"
       rx="117.91048"
       cy="396.73892"
       cx="531.95276"
       id="ellipse5906"
       style="opacity:1;fill:none;fill-opacity:1;stroke:#999999;stroke-width:0.53164309;stroke-linejoin:round;stroke-miterlimit:4;stroke-dasharray:2.12657237,2.12657237;stroke-opacity:1;stroke-dashoffset:0" />
    <path
       style="opacity:1;fill:none;fill-opacity:1;stroke:#999999;stroke-width:0.63229126;stroke-linejoin:round;stroke-miterlimit:4;stroke-dasharray:none;stroke-opacity:1"
       d="m 286.71726,163.35812 118.17638,0"
       id="rect5910"
       inkscape:connector-curvature="0"
       sodipodi:nodetypes="cc" />
    <text
       xml:space="preserve"
       style="font-style:normal;font-variant:normal;font-weight:bold;font-stretch:normal;font-size:15px;line-height:125%;font-family:sans-serif;-inkscape-font-specification:'sans-serif, Bold';text-align:start;letter-spacing:0px;word-spacing:0px;writing-mode:lr-tb;text-anchor:start;fill:#000000;fill-opacity:1;stroke:none;stroke-width:1px;stroke-linecap:butt;stroke-linejoin:miter;stroke-opacity:1"
       x="322.68118"
       y="181.60951"
       id="text5913"
       sodipodi:linespacing="125%"><tspan
         sodipodi:role="line"
         id="tspan5915"
         x="322.68118"
         y="181.60951"
         style="font-style:normal;font-variant:normal;font-weight:normal;font-stretch:normal;font-size:12.5px;font-family:sans-serif;-inkscape-font-specification:sans-serif">33.352 mm</tspan></text>
    <text
       xml:space="preserve"
       style="font-style:normal;font-variant:normal;font-weight:normal;font-stretch:normal;font-size:12.5px;line-height:125%;font-family:sans-serif;-inkscape-font-specification:sans-serif;text-align:start;letter-spacing:0px;word-spacing:0px;writing-mode:lr-tb;text-anchor:start;fill:#000000;fill-opacity:1;stroke:none;stroke-width:1px;stroke-linecap:butt;stroke-linejoin:miter;stroke-opacity:1"
       x="324.30267"
       y="196.20312"
       id="text5917"
       sodipodi:linespacing="125%"><tspan
         sodipodi:role="line"
         id="tspan5919"
         x="324.30267"
         y="196.20312">Use this radius for sphericals</tspan></text>
    <ellipse
       ry="117.91032"
       rx="117.91048"
       cy="162.76099"
       cx="357.12262"
       id="ellipse6080"
       style="opacity:1;fill:none;fill-opacity:1;stroke:#999999;stroke-width:0.53164309;stroke-linejoin:round;stroke-miterlimit:4;stroke-dasharray:2.12657237,2.12657237;stroke-opacity:1;stroke-dashoffset:0" />
    <ellipse
       style="opacity:1;fill:none;fill-opacity:1;stroke:#999999;stroke-width:0.53164309;stroke-linejoin:round;stroke-miterlimit:4;stroke-dasharray:2.12657237,2.12657237;stroke-opacity:1;stroke-dashoffset:0"
       id="ellipse6082"
       cx="303.33121"
       cy="156.76099"
       rx="117.91048"
       ry="117.91032" />
    <ellipse
       ry="117.91032"
       rx="117.91048"
       cy="162.13522"
       cx="454.4068"
       id="ellipse6084"
       style="opacity:1;fill:none;fill-opacity:1;stroke:#999999;stroke-width:0.53164309;stroke-linejoin:round;stroke-miterlimit:4;stroke-dasharray:2.12657237,2.12657237;stroke-opacity:1;stroke-dashoffset:0" />
    <path
       sodipodi:nodetypes="cc"
       inkscape:connector-curvature="0"
       id="path6086"
       d="m 404.57749,163.67427 0,-118.176384"
       style="opacity:1;fill:none;fill-opacity:1;stroke:#999999;stroke-width:0.63229126;stroke-linejoin:round;stroke-miterlimit:4;stroke-dasharray:none;stroke-opacity:1" />
    <g
       id="g6092"
       transform="matrix(0.54754204,0,0,0.54754204,208.37307,99.231446)">
      <path
         style="opacity:1;fill:none;fill-opacity:1;stroke:#999999;stroke-width:0.49606299;stroke-linejoin:round;stroke-miterlimit:4;stroke-dasharray:none;stroke-opacity:1"
         d="m 358.91412,91.547548 -26.21734,0"
         id="path6088"
         inkscape:connector-curvature="0"
         sodipodi:nodetypes="cc" />
      <path
         sodipodi:nodetypes="cc"
         inkscape:connector-curvature="0"
         id="path6090"
         d="m 332.76692,91.47741 0,26.21734"
         style="opacity:1;fill:none;fill-opacity:1;stroke:#999999;stroke-width:0.49606299;stroke-linejoin:round;stroke-miterlimit:4;stroke-dasharray:none;stroke-opacity:1" />
    </g>
    <circle
       style="opacity:1;fill:none;fill-opacity:1;stroke:#999999;stroke-width:0.65349454;stroke-linejoin:round;stroke-miterlimit:4;stroke-dasharray:none;stroke-dashoffset:0;stroke-opacity:1"
       id="path6096"
       cx="203.02191"
       cy="409.66681"
       r="2.2325335" />
    <text
       xml:space="preserve"
       style="font-style:normal;font-variant:normal;font-weight:normal;font-stretch:normal;font-size:10px;line-height:125%;font-family:sans-serif;-inkscape-font-specification:sans-serif;text-align:start;letter-spacing:0px;word-spacing:0px;writing-mode:lr-tb;text-anchor:start;fill:#000000;fill-opacity:1;stroke:none;stroke-width:1px;stroke-linecap:butt;stroke-linejoin:miter;stroke-opacity:1"
       x="207.29865"
       y="407.60803"
       id="text6098"
       sodipodi:linespacing="125%"><tspan
         sodipodi:role="line"
         id="tspan6100"
         x="207.29865"
         y="407.60803">r 0.7mm</tspan></text>
    <circle
       style="opacity:1;fill:none;fill-opacity:1;stroke:#999999;stroke-width:0.6222502;stroke-linejoin:round;stroke-miterlimit:4;stroke-dasharray:none;stroke-dashoffset:0;stroke-opacity:1"
       id="path6102"
       cx="189.10985"
       cy="423.62653"
       r="6.2874742" />
    <text
       xml:space="preserve"
       style="font-style:normal;font-variant:normal;font-weight:normal;font-stretch:normal;font-size:10px;line-height:125%;font-family:sans-serif;-inkscape-font-specification:sans-serif;text-align:start;letter-spacing:0px;word-spacing:0px;writing-mode:lr-tb;text-anchor:start;fill:#000000;fill-opacity:1;stroke:none;stroke-width:1px;stroke-linecap:butt;stroke-linejoin:miter;stroke-opacity:1"
       x="422.49197"
       y="-184.59377"
       id="text6104"
       sodipodi:linespacing="125%"
       transform="matrix(0,1,-1,0,0,0)"><tspan
         sodipodi:role="line"
         id="tspan6106"
         x="422.49197"
         y="-184.59377">r 1.8625mm</tspan></text>
    <ellipse
       ry="117.91032"
       rx="117.91048"
       cy="314.01831"
       cx="365.73489"
       id="ellipse6108"
       style="opacity:1;fill:none;fill-opacity:1;stroke:#999999;stroke-width:0.53164309;stroke-linejoin:round;stroke-miterlimit:4;stroke-dasharray:2.12657237, 2.12657237;stroke-dashoffset:0;stroke-opacity:1" />
    <ellipse
       style="opacity:1;fill:none;fill-opacity:1;stroke:#999999;stroke-width:0.53164309;stroke-linejoin:round;stroke-miterlimit:4;stroke-dasharray:2.12657237, 2.12657237;stroke-dashoffset:0;stroke-opacity:1"
       id="ellipse6110"
       cx="190.50531"
       cy="320.5083"
       rx="117.91048"
       ry="117.91032" />
    <ellipse
       style="opacity:1;fill:none;fill-opacity:1;stroke:#999999;stroke-width:0.53164309;stroke-linejoin:round;stroke-miterlimit:4;stroke-dasharray:2.12657237, 2.12657237;stroke-dashoffset:0;stroke-opacity:1"
       id="ellipse6112"
       cx="492.03998"
       cy="326.49905"
       rx="117.91048"
       ry="117.91032" />
    <ellipse
       ry="117.91032"
       rx="117.91048"
       cy="324.50214"
       cx="253.40823"
       id="ellipse6114"
       style="opacity:1;fill:none;fill-opacity:1;stroke:#999999;stroke-width:0.53164309;stroke-linejoin:round;stroke-miterlimit:4;stroke-dasharray:2.12657237, 2.12657237;stroke-dashoffset:0;stroke-opacity:1" />
    <ellipse
       ry="117.91032"
       rx="117.91048"
       cy="322.50522"
       cx="429.13705"
       id="ellipse6116"
       style="opacity:1;fill:none;fill-opacity:1;stroke:#999999;stroke-width:0.53164309;stroke-linejoin:round;stroke-miterlimit:4;stroke-dasharray:2.12657237, 2.12657237;stroke-dashoffset:0;stroke-opacity:1" />
    <ellipse
       ry="117.91032"
       rx="117.91048"
       cy="325.50061"
       cx="556.44061"
       id="ellipse6118"
       style="opacity:1;fill:none;fill-opacity:1;stroke:#999999;stroke-width:0.53164309;stroke-linejoin:round;stroke-miterlimit:4;stroke-dasharray:2.12657237, 2.12657237;stroke-dashoffset:0;stroke-opacity:1" />
    <ellipse
       ry="117.91032"
       rx="117.91048"
       cy="326.49905"
       cx="318.30807"
       id="ellipse6120"
       style="opacity:1;fill:none;fill-opacity:1;stroke:#999999;stroke-width:0.53164309;stroke-linejoin:round;stroke-miterlimit:4;stroke-dasharray:2.12657237, 2.12657237;stroke-dashoffset:0;stroke-opacity:1" />
    <ellipse
       ry="117.91032"
       rx="117.91048"
       cy="326.49905"
       cx="445.1124"
       id="ellipse6122"
       style="opacity:1;fill:none;fill-opacity:1;stroke:#999999;stroke-width:0.53164309;stroke-linejoin:round;stroke-miterlimit:4;stroke-dasharray:2.12657237, 2.12657237;stroke-dashoffset:0;stroke-opacity:1" />
    <ellipse
       style="opacity:1;fill:none;fill-opacity:1;stroke:#999999;stroke-width:0.53164309;stroke-linejoin:round;stroke-miterlimit:4;stroke-dasharray:2.12657237, 2.12657237;stroke-dashoffset:0;stroke-opacity:1"
       id="ellipse6124"
       cx="619.84277"
       cy="326.49905"
       rx="117.91048"
       ry="117.91032" />
    <ellipse
       style="opacity:1;fill:none;fill-opacity:1;stroke:#999999;stroke-width:0.53164309;stroke-linejoin:round;stroke-miterlimit:4;stroke-dasharray:2.12657237, 2.12657237;stroke-dashoffset:0;stroke-opacity:1"
       id="ellipse6126"
       cx="381.211"
       cy="321.50674"
       rx="117.91048"
       ry="117.91032" />
  </g>
</svg>
